<svg xmlns="http://www.w3.org/2000/svg" width="25" height="24" viewBox="0 0 25 24">
    <g fill="none" fill-rule="evenodd">
        <g>
            <g>
                <g>
                    <path d="M0 0H23.509V24H0z" transform="translate(-313 -122) translate(20 112) translate(293.86 10)"/>
                    <path fill="#16325C" d="M18.527 19.579c.317 0 .574.265.574.592v.237c0 .327-.257.592-.574.592H4.982c-.317 0-.574-.265-.574-.592v-.237c0-.327.257-.592.574-.592h13.545zM16.805 6.316c1.268 0 2.296 1.06 2.296 2.368v6.632c0 1.308-1.028 2.368-2.296 2.368H6.704c-1.268 0-2.296-1.06-2.296-2.368V8.684c0-1.308 1.028-2.368 2.296-2.368h10.101zm0 1.776H6.704c-.282 0-.516.21-.565.486l-.01.106v6.632c0 .29.204.532.472.582l.103.01h10.101c.282 0 .516-.21.565-.486l.009-.106V8.684c0-.327-.257-.592-.574-.592zM18.527 3c.317 0 .574.265.574.592v.237c0 .327-.257.592-.574.592H4.982c-.317 0-.574-.265-.574-.592v-.237c0-.327.257-.592.574-.592h13.545z" transform="translate(-313 -122) translate(20 112) translate(293.86 10)"/>
                </g>
            </g>
        </g>
    </g>
</svg>
