<svg xmlns="http://www.w3.org/2000/svg" width="24" height="24" viewBox="0 0 24 24">
    <defs>
        <filter id="h2sh61pqua">
            <feColorMatrix in="SourceGraphic" values="0 0 0 0 0.086275 0 0 0 0 0.196078 0 0 0 0 0.360784 0 0 0 1.000000 0"/>
        </filter>
    </defs>
    <g fill="none" fill-rule="evenodd">
        <g>
            <g>
                <g filter="url(#h2sh61pqua)" transform="translate(-54 -122) translate(20 112) translate(34.284 10)">
                    <g>
                        <path d="M0 0H23.509V24H0z"/>
                        <path fill="#16325C" d="M15.652 15c.552 0 1 .448 1 1s-.448 1-1 1H7.857c-.553 0-1-.448-1-1s.447-1 1-1h7.795zm1.96-4c.551 0 1 .448 1 1s-.449 1-1 1H5.897c-.553 0-1-.448-1-1s.447-1 1-1H17.61zm1.958-4c.552 0 1 .448 1 1s-.448 1-1 1H3.94c-.553 0-1-.448-1-1s.447-1 1-1H19.57z"/>
                    </g>
                </g>
            </g>
        </g>
    </g>
</svg>
