<svg xmlns="http://www.w3.org/2000/svg" width="24" height="24" viewBox="0 0 24 24">
    <defs>
        <filter id="2hge7wk0wa">
            <feColorMatrix in="SourceGraphic" values="0 0 0 0 0.086275 0 0 0 0 0.196078 0 0 0 0 0.360784 0 0 0 1.000000 0"/>
        </filter>
    </defs>
    <g fill="none" fill-rule="evenodd">
        <g>
            <g>
                <g filter="url(#2hge7wk0wa)" transform="translate(-195 -122) translate(20 112) translate(175.336 10)">
                    <g>
                        <path d="M0 0H23.509V24H0z"/>
                        <path fill="#16325C" d="M16.264 5c.406-.002.743.319.798.738l.008.117.055 10.281 2.089-2.152c.287-.296.727-.317 1.035-.068l.098.093c.276.308.295.78.063 1.11l-.086.105-3.435 3.537-.06.055-.095.07-.097.05-.078.03-.108.025c-.036.006-.074.009-.112.009l-.06-.002-.083-.01-.047-.011-.07-.021-.114-.052-.088-.057-.065-.055-3.468-3.568c-.319-.329-.33-.873-.023-1.215.276-.309.715-.349 1.032-.114l.101.089 2.068 2.131-.055-10.25c-.003-.475.354-.862.797-.865zm-9.094.21l.06.003.083.01.116.032.073.03.073.04.068.048.082.072 3.434 3.473c.322.326.337.87.034 1.216-.274.31-.712.355-1.032.123l-.101-.088-2.074-2.096.056 10.054c.002.475-.354.862-.797.865-.406.003-.743-.319-.798-.738l-.008-.117-.055-10.086-2.094 2.118c-.29.293-.73.31-1.036.058l-.097-.093c-.273-.311-.289-.783-.054-1.112l.087-.104 3.435-3.473.06-.054.088-.065.068-.037c.1-.05.212-.078.33-.078z"/>
                    </g>
                </g>
            </g>
        </g>
    </g>
</svg>
